<?xml version="1.0" encoding="UTF-8"?>
<svg id="Ebene_2" data-name="Ebene 2" xmlns="http://www.w3.org/2000/svg" viewBox="0 0 430.42 430.42">
  <defs>
    <style>
      .cls-1 {
        fill: #fff;
      }

      .cls-2 {
        fill: #f6e81d;
      }
    </style>
  </defs>
  <g id="Ebene_1-2" data-name="Ebene 1">
    <g>
      <g>
        <path class="cls-1" d="m96.96,141.7v7.35c0,9.04-4.36,13.97-13.24,13.97h-4.2v21.24h-8.88v-56.52h13.08c8.88,0,13.24,4.93,13.24,13.97Zm-17.44-5.89v19.14h4.2c2.83,0,4.36-1.29,4.36-5.33v-8.48c0-4.04-1.53-5.33-4.36-5.33h-4.2Z"/>
        <path class="cls-1" d="m109.96,151.55h12.19v8.08h-12.19v16.55h15.34v8.07h-24.22v-56.52h24.22v8.07h-15.34v15.75Z"/>
        <path class="cls-1" d="m159.53,184.25h-8.96l-1.53-10.25h-10.9l-1.53,10.25h-8.16l9.04-56.52h13l9.04,56.52Zm-20.27-17.93h8.56l-4.2-28.58h-.16l-4.2,28.58Z"/>
        <path class="cls-1" d="m175.27,161.72l-2.75,5.17v17.36h-8.88v-56.52h8.88v24.47h.16l11.47-24.47h8.88l-12.35,25.19,12.35,31.33h-9.12l-8.64-22.53Z"/>
      </g>
      <g>
        <path class="cls-2" d="m113.94,242.53h20.38v14.35h-20.38v41.48h-15.79v-100.47h41.77v14.35h-25.98v30.28Z"/>
        <path class="cls-2" d="m146.23,222c0-16.07,8.47-25.26,23.97-25.26s23.97,9.19,23.97,25.26v52.24c0,16.07-8.47,25.26-23.97,25.26s-23.97-9.19-23.97-25.26v-52.24Zm15.79,53.25c0,7.18,3.16,9.9,8.18,9.9s8.18-2.73,8.18-9.9v-54.25c0-7.18-3.16-9.9-8.18-9.9s-8.18,2.73-8.18,9.9v54.25Z"/>
        <path class="cls-2" d="m250.14,260.9v13.35c0,16.07-8.04,25.26-23.54,25.26s-23.54-9.19-23.54-25.26v-52.24c0-16.07,8.04-25.26,23.54-25.26s23.54,9.19,23.54,25.26v9.76h-14.93v-10.76c0-7.18-3.16-9.9-8.18-9.9s-8.18,2.73-8.18,9.9v54.25c0,7.18,3.16,9.76,8.18,9.76s8.18-2.58,8.18-9.76v-14.35h14.93Z"/>
        <path class="cls-2" d="m274.82,197.89v77.5c0,7.18,3.16,9.76,8.18,9.76s8.18-2.58,8.18-9.76v-77.5h14.93v76.5c0,16.07-8.04,25.26-23.54,25.26s-23.54-9.19-23.54-25.26v-76.5h15.79Z"/>
        <path class="cls-2" d="m338.11,196.74c15.36,0,23.25,9.19,23.25,25.26v3.16h-14.93v-4.16c0-7.18-2.87-9.9-7.89-9.9s-7.89,2.73-7.89,9.9,3.16,12.77,13.49,21.82c13.2,11.63,17.37,19.95,17.37,31.43,0,16.07-8.04,25.26-23.54,25.26s-23.54-9.19-23.54-25.26v-6.17h14.93v7.18c0,7.18,3.16,9.76,8.18,9.76s8.18-2.58,8.18-9.76-3.16-12.77-13.49-21.82c-13.2-11.63-17.37-19.95-17.37-31.43,0-16.07,7.89-25.26,23.25-25.26Z"/>
      </g>
      <path class="cls-1" d="m215.21,415.54c-110.46,0-200.32-89.86-200.32-200.32S104.75,14.89,215.21,14.89s200.32,89.87,200.32,200.32-89.86,200.32-200.32,200.32Zm0-393.85C108.5,21.69,21.69,108.5,21.69,215.21s86.82,193.53,193.53,193.53,193.53-86.82,193.53-193.53S321.92,21.69,215.21,21.69Z"/>
      <path class="cls-1" d="m215.21,424.55c-115.43,0-209.34-93.91-209.34-209.34S99.78,5.87,215.21,5.87s209.34,93.91,209.34,209.34-93.91,209.34-209.34,209.34Zm0-415.28C101.66,9.27,9.27,101.66,9.27,215.21s92.39,205.94,205.94,205.94,205.94-92.39,205.94-205.94S328.77,9.27,215.21,9.27Z"/>
      <path class="cls-1" d="m215.21,430.42C96.54,430.42,0,333.88,0,215.21S96.54,0,215.21,0s215.21,96.54,215.21,215.21-96.54,215.21-215.21,215.21ZM215.21.85C97.01.85.85,97.01.85,215.21s96.16,214.36,214.36,214.36,214.36-96.16,214.36-214.36S333.41.85,215.21.85Z"/>
    </g>
  </g>
</svg>